PathFileType	4	(X/Y/Z)	RBDS021\RBDS021runT45.trc
DataRate	CameraRate	NumFrames	NumMarkers	Units	OrigDataRate	OrigDataStartFrame	OrigNumFrames
150.000000	150.000000	4	33	mm	150.000000	2250	4500
Frame#	Time	L.ASIS			L.Heel.Bottom			L.Heel.Lateral			L.Heel.Top			L.Iliac.Crest			L.MT1			L.MT5			L.PSIS			L.Shank.Bottom.Lateral			L.Shank.Bottom.Medial			L.Shank.Top.Lateral			L.Shank.Top.Medial			L.Thigh.Bottom.Lateral			L.Thigh.Bottom.Medial			L.Thigh.Top.Lateral			L.Thigh.Top.Medial			R.ASIS			R.ASY			R.Heel.Bottom			R.Heel.Lateral			R.Heel.Top			R.Iliac.Crest			R.MT1			R.MT5			R.PSIS			R.Shank.Bottom.Lateral			R.Shank.Bottom.Medial			R.Shank.Top.Lateral			R.Shank.Top.Medial			R.Thigh.Bottom.Lateral			R.Thigh.Bottom.Medial			R.Thigh.Top.Lateral			R.Thigh.Top.Medial			
		X1	Y1	Z1	X2	Y2	Z2	X3	Y3	Z3	X4	Y4	Z4	X5	Y5	Z5	X6	Y6	Z6	X7	Y7	Z7	X8	Y8	Z8	X9	Y9	Z9	X10	Y10	Z10	X11	Y11	Z11	X12	Y12	Z12	X13	Y13	Z13	X14	Y14	Z14	X15	Y15	Z15	X16	Y16	Z16	X17	Y17	Z17	X18	Y18	Z18	X19	Y19	Z19	X20	Y20	Z20	X21	Y21	Z21	X22	Y22	Z22	X23	Y23	Z23	X24	Y24	Z24	X25	Y25	Z25	X26	Y26	Z26	X27	Y27	Z27	X28	Y28	Z28	X29	Y29	Z29	X30	Y30	Z30	X31	Y31	Z31	X32	Y32	Z32	X33	Y33	Z33	

2251	15	2191.879189665253	969.3294730901351	943.2858509470746	1475.897976111466	337.255917029661	1045.422766125545	1487.675047085525	322.2612402966379	991.1053063522961	1520.135090320704	345.9966599903827	1029.23496133333	2171.787447900466	1056.928377116252	900.5142592067397	1567.136725248996	136.6682905981809	1032.115896845413	1512.460800203501	173.01788011651	937.9866143378838	2020.947138269375	1041.684812326081	993.5737858581649	1600.904780752887	352.2752677801894	945.8206910655205	1582.426971586524	378.2776496734695	991.4336324386334	1648.353101219433	414.8705561821208	930.012542413101	1629.633817644516	441.4224748945039	972.840247038845	1936.601256541805	675.5283306578272	888.8608516589944	1890.225400743475	718.2241375131709	923.0127782016273	1993.850650465949	765.0536941087946	859.4618605183952	1947.900382578223	806.3979450622027	890.4559966888556	2179.739896667961	988.9655936189755	1154.794997019386	2457.212566611512	160.8437605596761	1122.381045898166	2291.372174924139	107.1865962499325	1052.075729423509	2303.752422965275	119.9344207366363	1105.644561891739	2296.180138882525	151.021613008132	1061.406871042814	2109.931219267969	1066.576304393491	1202.331729081296	2502.258084663886	129.2601327365705	1078.361482455276	2450.111142726081	106.7591095783002	1175.870768707592	2009.652572246558	1036.169262477213	1077.012998146949	2326.005901411634	251.1941968427907	1138.876024255898	2303.807119691892	259.0547387755994	1093.278306949272	2317.09568089116	333.4935057777788	1156.691035783075	2291.377211122327	337.0284828763237	1110.6321331049	2275.058781427338	688.5141403216091	1189.842721768832	2223.789669502826	645.5504789856789	1160.47241450033	2197.647496683313	763.8917760074189	1206.739268079262	2150.135914859587	723.788246966286	1176.41628636153	
2252	15.00666666666667	2192.457848003468	970.9044534315902	943.3545361146784	1468.138315540202	359.4340503856611	1049.343214264661	1478.229654633385	344.1223633205166	994.8738908341106	1512.353611957282	366.1813993107373	1032.565117263505	2170.233655216573	1060.63100260391	900.9929158972594	1549.819889934432	155.1570771720704	1034.380992138774	1495.213479004863	194.4256647675693	941.0646625500548	2021.368778517804	1043.485480307096	994.5409387293309	1593.007284760408	368.228634590641	948.1830653972988	1576.514194231272	395.4714837909901	993.7489284917548	1644.073181627337	427.6206389502832	931.7527469076687	1627.469556433146	455.3877000193488	974.6179999563458	1940.535306298689	675.4133524436321	887.2867238707814	1893.131856822908	717.592203354616	920.4766613607475	1997.125610022974	765.4346632474752	858.3972020816091	1950.153490868349	806.293341507919	888.4302045911668	2179.99049386236	988.2665315540526	1154.43874918727	2475.930245193927	159.5043498291123	1120.488381572252	2311.273189972604	99.21804018919818	1052.907864315796	2324.237960806927	111.4651264409512	1106.289404524025	2314.129753140615	143.055223272098	1062.953962847017	2111.353581311268	1065.903403341707	1202.286538615563	2521.469303326569	131.4462816531414	1074.89835523342	2472.702308600868	103.8181642978555	1173.043877518986	2009.765720520556	1036.130056642244	1077.476074102147	2339.458769919161	243.6939831703584	1140.031843273848	2316.324522206358	250.7513989487952	1094.701415500409	2326.05081476677	325.1517719233061	1158.694261482332	2299.636875374478	327.740033701348	1112.931771442567	2270.723890150721	682.7543861365873	1191.929794594409	2219.388285511973	641.1282606104234	1160.874529284411	2194.687701691137	759.5252725795017	1207.821572832882	2146.884005908251	720.7460754420612	1176.094656443415	
2253	15.01333333333333	2192.977276432482	972.2755885106125	943.4511158465498	1462.643551833322	381.9956481533288	1053.624783206284	1470.88712275155	366.4492684788011	998.993038829526	1506.643629757142	386.6208492313443	1036.125340737172	2167.932627443457	1064.109040765596	901.3886600330684	1533.789949895117	174.6348447403297	1036.903784269589	1479.404667616234	216.8879720083676	944.4805174192346	2021.586475409472	1044.65865515471	995.5876051856651	1586.798999379299	384.3580297606409	950.6300477123115	1572.546547202786	412.7821322875436	996.1908470039999	1641.529895896146	440.1736910558126	933.4959827626406	1627.257929056315	469.1155521753009	976.4019930421453	1945.348721922447	674.0357118734432	885.4461583572723	1896.77041852576	715.3497174590776	917.8609997269873	2000.798872381159	764.887508460704	857.2946761749869	1952.702814695206	804.9091357667613	886.5914122234486	2180.113787046409	987.2033567761753	1154.181382639666	2490.961458846402	157.6109169350897	1118.820290337741	2327.304474949092	92.62357383843025	1053.537990686256	2340.96442132398	104.0164055187673	1106.760345483998	2328.592214970497	136.2610483570337	1064.489967610099	2112.648516355435	1064.494489184579	1202.412008751486	2536.620227218448	132.9095363273137	1071.618844985572	2491.155120726082	100.3324954929302	1170.14451198932	2009.752811725057	1035.51831586156	1078.008175648774	2350.165830494841	236.6588595737744	1141.210481286169	2326.107242024753	243.038303734607	1096.157616452843	2332.814863482442	317.209400485006	1160.637668026029	2305.684041570955	319.0089983027519	1115.182104783096	2266.125297449597	676.7539173822208	1194.005269463539	2214.762660422283	636.5385432138712	1161.182405078839	2191.558709618622	754.91696170877	1208.937351713308	2143.454847823639	717.4888979917133	1175.835264512835	
2254	15.02	2193.459478857038	973.4028510711554	943.5340601288927	1459.837012183557	404.7549265926248	1058.057579641092	1466.126990588625	389.0830774309832	1003.257311881684	1503.453702882225	407.10266986521	1039.737417412885	2165.099998978842	1067.174701907825	901.6852924392418	1519.328951359617	194.8379573747019	1039.444524807879	1465.495595111732	240.2443995834363	948.0193650193409	2021.67435682371	1045.120075410609	996.6414068787971	1582.595913892052	400.4576667653014	953.0041256157482	1570.782241014412	429.9308093143632	998.6076498556901	1640.894616477087	452.3993455994324	935.1161294279035	1629.107192210402	482.4039746574373	978.0648476678499	1950.841988361616	671.5224495762365	883.4346353269719	1901.076274642179	711.6574963722304	915.3994175560075	2004.717675453303	763.4824854216016	856.2098255269932	1955.515335392887	802.3518315488346	885.1126099340217	2180.142928779369	985.8309693474325	1154.013447117898	2502.078011697095	154.8528472012273	1117.501649663747	2339.262344266842	87.10770112519387	1053.656682552174	2353.570283085208	97.3155882251591	1106.78964874954	2339.356228560647	130.3892948062609	1065.707530672182	2113.808392995926	1062.460167163961	1202.666382149061	2547.659899355324	133.2346127506624	1068.772155644525	2505.026944775075	96.00278327880969	1167.309272619139	2009.688523360762	1034.358853064753	1078.568567542492	2357.834168237841	229.9331259666318	1142.222573853257	2332.979729523703	235.780719888516	1097.403125202599	2337.14259826152	309.6016999759969	1162.308808705957	2309.398818063643	310.7914449648795	1117.098782392042	2261.382120652051	670.6969936902057	1195.966696267348	2209.981626619877	631.9210516890823	1161.441750734978	2188.363690854671	750.2551086154449	1210.016142040181	2139.93398368055	714.1603003889617	1175.667420473491	
